<?xml version="1.0" standalone="no"?>
<!DOCTYPE svg PUBLIC "-//W3C//DTD SVG 20010904//EN"
 "http://www.w3.org/TR/2001/REC-SVG-20010904/DTD/svg10.dtd">
<svg version="1.0" xmlns="http://www.w3.org/2000/svg"
 width="800.000000pt" height="800.000000pt" viewBox="0 0 800.000000 800.000000"
 preserveAspectRatio="xMidYMid meet">
<metadata>
Created by potrace 1.14, written by Peter Selinger 2001-2017
</metadata>
<g transform="translate(0.000000,800.000000) scale(0.100000,-0.100000)"
fill="#000000" stroke="none">
<path d="M3665 7989 c-775 -75 -1460 -336 -2062 -785 -803 -599 -1357 -1492
-1538 -2477 -47 -258 -57 -376 -60 -687 -2 -162 1 -324 5 -360 5 -36 11 -94
14 -130 4 -36 8 -75 10 -85 2 -11 7 -42 10 -70 50 -371 204 -848 393 -1215
430 -837 1117 -1480 1983 -1857 332 -145 680 -239 1105 -298 136 -19 651 -29
795 -15 259 24 446 56 662 111 291 74 507 154 773 284 1148 564 1948 1618
2180 2873 46 247 57 372 60 677 3 306 -6 448 -46 690 -194 1193 -914 2228
-1970 2833 -452 259 -1016 444 -1519 497 -36 4 -74 9 -85 12 -38 9 -620 11
-710 2z"/>
</g>
</svg>
